<svg id="Layer_1" data-name="Layer 1" xmlns="http://www.w3.org/2000/svg" viewBox="0 0 595.28 841.89"><defs><style>.cls-1{fill:#231f20;}</style></defs><path class="cls-1" d="M212.51,271.08c-.48-2.12-.88-4.24-1.21-6.38l1.84,13.69a78.06,78.06,0,0,1,0-19.44l-1.84,13.69a78.72,78.72,0,0,1,5.12-18.75l-5.19,12.3a75.93,75.93,0,0,1,9-15.45l-8.06,10.43A101.17,101.17,0,0,1,230,243.88l-10.42,8.05A272.25,272.25,0,0,1,275.21,220l-12.3,5.19a130.3,130.3,0,0,1,32.61-9.28l-13.69,1.84a93.56,93.56,0,0,1,23.17,0l-13.69-1.84a75.7,75.7,0,0,1,18.2,5.05l-12.31-5.2a83.07,83.07,0,0,1,16.08,9.55l-10.42-8.06a108.07,108.07,0,0,1,18.74,19l-8.05-10.42c12.37,16.33,20.72,35.22,28.74,53.95l-5.19-12.3a47.66,47.66,0,0,1,2.91,9.48l-1.84-13.69a24.82,24.82,0,0,1,.09,4.72l1.84-13.69a12.58,12.58,0,0,1-.74,3l5.19-12.3a12.23,12.23,0,0,1-1.46,2.71l8.05-10.42a21.12,21.12,0,0,1-3.12,3.15l10.43-8.05a38.69,38.69,0,0,1-6.67,3.68l12.3-5.19C338.87,241.45,312,247.25,285,250.93l13.69-1.84c-17.32,2.3-34.72,3.77-52.13,5-17.58,1.23-35.44,3.19-53,1.1L207.22,257c-19.31-2.68-37.05-12.09-57.12-10.28l49.66,65.19a55.1,55.1,0,0,1,2.05-5.87l-5.19,12.3a56,56,0,0,1,6.34-10.6l-8.06,10.42a92.42,92.42,0,0,1,15.89-15.36l-10.42,8.05A227.45,227.45,0,0,1,248.93,283l-12.3,5.19a241,241,0,0,1,59.46-16.36l-13.69,1.84c17-2.28,34.48-3.15,51.54-1l-13.69-1.84a85.5,85.5,0,0,1,19.9,5.17l-12.31-5.19a63.36,63.36,0,0,1,13,7.57l-10.42-8.05a85,85,0,0,1,13.63,14L336,273.88c7.45,9.75,14.39,20.55,19.32,31.81l-5.2-12.31A52,52,0,0,1,353.41,305l-1.84-13.69a32.05,32.05,0,0,1,.13,6.42l1.84-13.69a9.34,9.34,0,0,1-.82,2.79l5.19-12.3-.78,1.22,8.05-10.43-1,1,10.42-8.05a9,9,0,0,1-2.5,1.37l12.3-5.19c-5.65,1.81-11.85,2.32-17.71,3.13l13.69-1.84c-26,3.43-52.17,4.3-78.35,4.11-23.51-.17-47.62.26-71-2.8l13.7,1.84a96.69,96.69,0,0,1-24-6.24l12.3,5.2a60.47,60.47,0,0,1-12.13-7.12l10.42,8a53.59,53.59,0,0,1-7.15-7c-8.13-9.57-24.28-15.08-36.41-15.08-12.63,0-27.72,5.61-36.42,15.08-9,9.82-15.7,22.7-15.08,36.42L138.1,302a51.38,51.38,0,0,0,13.24,22.72c5,5.93,11.38,10.38,17.57,15a60.31,60.31,0,0,0,10.84,6.54c11,5.16,22,9.47,33.92,11.45,22.61,3.74,45.09,4.37,67.94,4.88,21.35.48,42.73.6,64.06-.58q16.44-.9,32.78-3c21.34-2.73,42.81-4.1,59.06-20.34,17.87-17.86,21.31-46.17,13.17-69.43a173.67,173.67,0,0,0-18.2-36.55c-6.88-10.74-14.57-21.5-23.74-30.41C396,190,382.36,182.23,365.94,176c-12.81-4.83-27.08-6.33-40.64-7.21a206.92,206.92,0,0,0-28.39.28c-23.06,1.71-46.3,5.44-68.35,12.55-23.68,7.64-47.1,18.08-68,31.7-26.89,17.55-51,39.25-60.14,71.2-4.54,15.84-.64,32.12,9.22,44.89,9.16,11.86,24.65,21.72,40.44,20.3a43.22,43.22,0,0,1,8.66.09L145.07,348c10.62,1.51,20.51,6,31.08,7.8a199.83,199.83,0,0,0,43.58,3c21.77-1,43.62-2.67,65.28-5.05,25.12-2.77,50.39-6.18,74.82-12.8a257.4,257.4,0,0,0,30.23-10.17c12.48-5.1,21.24-8.73,31.37-18,11-10.05,17-23.49,18.91-38,1.43-10.63,1-21.4-2.7-31.64-3.08-8.6-7-17-10.74-25.3a292.48,292.48,0,0,0-14.23-28.72c-13.48-23.18-31.95-44.25-55.16-58.09-11.23-6.69-24.13-12-37.06-14.25-9-1.58-18.64-3-27.9-2.85s-18.76,1.64-28,3.15c-12.33,2-23.75,6.52-35.21,11.36a311.6,311.6,0,0,0-33.27,16.35,267.26,267.26,0,0,0-27.87,17.66c-7.43,5.54-15.15,11.22-21.76,17.79a154,154,0,0,0-17.15,21.16c-19.44,27.82-23.47,64.57-16.13,97,2.77,12.27,13,24.54,23.66,30.78,11,6.46,27.31,9.2,39.69,5.19s24.48-11.75,30.77-23.67a55.71,55.71,0,0,0,5.2-39.68Z"/><path class="cls-1" d="M140.66,342a151.18,151.18,0,0,1,.39,26.91c-.19,2.39-.42,4.78-.74,7.15.48-3.6-.37,1.9-.56,2.94q-1.29,7.07-3.26,14-1.73,6-4,11.93c-.16.44-1.53,3.91-.71,1.9s-.63,1.43-.83,1.85c-1,2.14-2,4.26-3.07,6.36a226,226,0,0,1-14,23.35C93.64,468.5,69.18,496.77,61,533.12a106.31,106.31,0,0,0-2.84,28.71c.63,11.83,2.23,24.71,13.11,31.64A21.53,21.53,0,0,0,94,593c5.48-3.75,8.76-9.31,12.26-14.79a215.41,215.41,0,0,0,13.27-23.13,125.81,125.81,0,0,0,10-28.39c1.93-9.22,3-18.61,5.55-27.69.65-2.27,1.38-4.52,2.17-6.74.4-1.11.83-2.21,1.24-3.32.05-.15,1.12-2.87.37-1-.82,2.05.6-1.36.79-1.8.37-.81.73-1.62,1.1-2.42,1.12-2.43,2.28-4.83,3.46-7.22,3.92-8,8.07-15.88,11.64-24,17.76-40.68,21.4-84.58,24.23-128.39.64-9.94-9.2-19.44-19-19-10.84.48-18.31,8.35-19,19-1.1,17.07-2.26,34.15-4.39,51.13-.48,3.85-.17,1.2-.05.39l-.39,2.72q-.48,3.17-1,6.31-1.12,6.74-2.57,13.42A226.67,226.67,0,0,1,127,422.56c-1.25,3.74-2.65,7.42-4.11,11.08,1.15-2.9-.94,2.1-1.3,2.89q-1.48,3.24-3,6.43c-3.64,7.47-7.51,14.82-11,22.38-4,8.77-7.77,17.73-10.06,27.11-2.11,8.58-3.09,17.38-5,26a104.87,104.87,0,0,1-4.18,13.9c-.06.15-1.18,2.84-.39,1s-1.27,2.68-1.21,2.57c-.89,1.86-1.83,3.71-2.8,5.53-2.23,4.2-4.65,8.28-7.14,12.32-1.25,2-2.53,4-3.81,6-.48.75-1,1.5-1.45,2.25l-1.44,2.24q-3.44,5,7.11-5.06H87.3l4.94,4.83q6.18,8.57,4.65,3.75a14.92,14.92,0,0,0-.47-2.54c-.51-2.17,0,.48.07.82-.1-1.14-.22-2.26-.29-3.4a79.73,79.73,0,0,1,.13-11.87c.1-1.13.21-2.26.36-3.38,0,.33-.58,3,0,.83.47-1.93.73-3.93,1.18-5.87a113.35,113.35,0,0,1,3.4-11.6c.67-1.92,1.44-3.8,2.15-5.71s-.08.2-.22.51c.48-1.06.95-2.13,1.44-3.19,1.73-3.7,3.61-7.34,5.59-10.91,4-7.15,8.46-14,13.1-20.73,19.49-28.26,40.69-54.8,50.1-88.5A164.13,164.13,0,0,0,178.66,342c-1-9.85-8-19.49-19-19-9.44.43-20.08,8.41-19,19Z"/><path class="cls-1" d="M356.31,338.06c-1.23,19-1,37.78,6.85,55.46,7.14,16,21.81,25.17,32.92,37.94.5.58,1,1.17,1.48,1.76-2.45-2.94-.65-.86-.22-.12.91,1.57,1.93,3.06,2.78,4.67.48.9.9,1.84,1.36,2.76,1,1.92-.37-.79-.43-1,.66,2.22,1.5,4.35,2.08,6.59.45,1.75.79,3.52,1.16,5.29.73,3.53.11.28,0-.42.13,1,.24,2.08.33,3.13a118.7,118.7,0,0,1,.43,11.93c-.18,16.33-3.23,32.45-3.74,48.77-.62,19.74,2.41,40.86,14.15,57.29,5.71,8,16.78,12.88,26,6.82C460,566.71,464.35,545.15,460,524.48c-1.91-9.19-6.36-17.78-10.54-26.11-1.12-2.23-2.24-4.46-3.32-6.71-.48-1-.94-2-1.4-3-.77-1.65-.62-1.69,0,0-.82-2.31-1.69-4.57-2.33-6.94-.28-1-.42-2.15-.75-3.16-.86-2.62.34,4.33-.09-.61-.86-9.87-8.12-19.48-19-19-9.56.43-19.93,8.4-19,19,.94,10.83,3.93,20.05,8.37,29.89,1.83,4,3.88,8,5.85,11.94.74,1.5,1.48,3,2.18,4.49.48,1,.94,2,1.38,3-.78-1.9-.83-2-.16-.29,1,3,1.75,5.87,2.45,8.89.34,2.12.3,1.75-.12-1.09.09.88.16,1.76.2,2.64.07,1.76,0,3.48-.08,5.23-.12,4.05,1.06-3.54-.09,0q-.27,1.22-.66,2.4-1,2.91.57-1.13a24.16,24.16,0,0,1-1.16,2.12q-1.69,2.51.83-.94a19.83,19.83,0,0,1-1.7,1.73q3.41-2.46.84-.73l26,6.82a72.22,72.22,0,0,1-5.48-9.34c1.93,3.76-.2-.79-.56-1.9a67.39,67.39,0,0,1-1.77-6.7c-.16-.76-.31-1.53-.44-2.29s-.57-3.93-.25-1.34c.29,2.44,0-.21,0-.59-.08-1-.19-2.1-.26-3.15-.26-4-.29-8-.19-12,.42-15.78,3.3-31.38,3.71-47.16.46-17.35-2-35.16-10.45-50.55-7.92-14.45-21.61-24.07-32.5-36-1.82-2,1.52,2.57.2.2-.63-1.14-1.45-2.19-2.1-3.33-.4-.71-.71-1.51-1.15-2.18-1.45-2.2,1.18,3.78-.32-.71a64.77,64.77,0,0,1-1.83-6.25c-.29-1.29-1.08-7.1-.67-3.07-1-9.48-.51-19,.11-28.47.64-9.94-9.2-19.44-19-19-10.85.48-18.31,8.35-19,19Z"/><path class="cls-1" d="M229.23,300.09a426.69,426.69,0,0,0-6.83,73.26c0,10.56.45,21.11.45,31.66,0,5.06-.11,10.12-.45,15.16-.08,1.18-.17,2.35-.27,3.53,0-.19-.56,5.57-.24,2.74.26-2.36-.2,1.29-.29,1.82-.29,1.73-.61,3.45-1,5.17a86.52,86.52,0,0,1-4.33,14.26c1.34-3.27-1.17,2.2-1.71,3.24-1.32,2.52-2.74,5-4.2,7.41-5.28,8.8-11.12,17.27-15.28,26.69-9.66,21.88-13.24,46.22-14.54,70-1.3,23.58,2.34,49.34,23.85,63.19,10.84,7,25.1,8.33,36.47,1.85,14.08-8,13.4-23.74,13.65-37.76q1.25-70.46,2.5-140.91c.43-24.57.21-49.27,2.19-73.78q.31-3.9.73-7.8c.15-1.44.33-2.87.49-4.31.43-3.69-.26,1.29.14-1,1-5.66,1.89-11.31,3.23-16.9a152.66,152.66,0,0,1,4.87-16.39c.48-1.34,1-2.66,1.51-4,1.26-3.3-.56.94.42-1,1.45-2.8,2.73-5.68,4.23-8.46,4.73-8.74,2.46-21.1-6.82-26-8.85-4.67-20.94-2.52-26,6.82-19.77,36.57-21.68,78.34-22.41,119q-1.19,66.48-2.35,133l-.58,32.75-.28,15.87c0,1.33,0,2.65-.07,4,0,1.07-1,3.52.09,1.48,1.21-2.32,1-3.09,3.14-5.26a6.52,6.52,0,0,1,4.47-3.07l-1.2.33c4.63-.85,2.49-.22,1.23-.34,4.87.45,2,.38.61-.14-2.44-.91,2.76,1.83.7.26-.52-.4-3.23-1.71-1-.42s-.19-.22-.75-.76-1.28-1.39-1.93-2.06c-1.78-1.83,1.51,2.74.44.43-.49-1-1.21-2.07-1.78-3.09-1.92-3.37.11.56.22.64-.41-.32-.89-2.71-1.08-3.39-.31-1.15-.54-2.3-.8-3.46-.81-3.67-.17-1.09-.09-.24a120.58,120.58,0,0,1-.22-16.24q.33-7.65,1.14-15.27c.13-1.27.28-2.53.43-3.8.06-.51.54-3.72.07-.64.43-2.84.87-5.68,1.38-8.5.85-4.73,1.82-9.43,3-14.07q.89-3.44,2-6.81c.36-1.12.74-2.24,1.14-3.35s1.41-3.72.35-1.21c3.78-8.93,9.37-17,14.4-25.23a122.76,122.76,0,0,0,13.22-28.66c6.67-22.51,5.25-46.33,4.92-69.49-.18-12.29.17-24.58,1.12-36.83.46-5.87,1.07-11.71,1.76-17.55.47-3.93.2-1.64.09-.78.26-1.94.55-3.88.85-5.81.49-3.23,1-6.45,1.6-9.67,1.73-9.75-2.62-20.94-13.27-23.37-9.25-2.11-21.52,2.81-23.37,13.27Z"/><path class="cls-1" d="M272.21,339.12c1,18.8,8.51,35.05,16.07,52,.3.66,3,7.1,1.43,3.17.63,1.55,1.26,3.11,1.84,4.67a97.55,97.55,0,0,1,4,13.15c.4,1.82.73,3.65,1,5.48-.59-3.75.31,3.48.36,4.19.31,4.35.38,8.71.33,13.07-.39,34.75-7.26,71.95,13.49,102.8,4.55,6.78,13.15,11.42,21.45,8.73,8.69-2.81,12.87-9.6,13.95-18.32a183.68,183.68,0,0,0,0-45.79c-1.26-9.88-3.87-17.79-7.86-26.9-1.59-3.63.47,2.07-.81-2.15-.52-1.75-1.16-3.46-1.67-5.21-1-3.51-1.87-7.07-2.67-10.64-7.07-31.16-13.83-62.39-20.74-93.58-2.15-9.72-13.95-16.32-23.37-13.27-10.2,3.3-15.57,13-13.27,23.37,6.78,30.6,13.49,61.21,20.33,91.8a133.45,133.45,0,0,0,6.05,21c1.07,2.62,2.17,5.24,3.34,7.82,1.65,3.63-.47-2.12.87,2,.52,1.64,1.07,3.25,1.46,4.93.21.91,1.08,5.86.45,1.6,2.17,14.79,1.69,30.17-.14,44.95l35.41-9.59A66.52,66.52,0,0,1,338,508.6c1.84,4.1-.66-2.19-.91-3-.48-1.54-.91-3.1-1.3-4.67-.53-2.11-.91-4.24-1.33-6.37-1-5.26.3,3.92-.23-1.44-.38-3.84-.65-7.68-.75-11.53-.42-16.87,1.89-33.66,1.75-50.52A140.08,140.08,0,0,0,332.16,402c-2-8.84-5.45-17.18-9-25.45-1.56-3.61-3.2-7.17-4.8-10.76-.69-1.53-1.36-3.06-2-4.6-.87-2-.89-2,0-.07-.42-1-.82-2.06-1.22-3.09a100.9,100.9,0,0,1-3.34-10.18c-.49-1.85-.85-3.72-1.25-5.59-.36-2.21-.37-2.16,0,.17-.11-1.1-.18-2.2-.22-3.3-.54-9.91-8.36-19.48-19-19-9.84.44-19.57,8.37-19,19Z"/></svg>