<svg id="Layer_1" data-name="Layer 1" xmlns="http://www.w3.org/2000/svg" viewBox="0 0 595.28 841.89"><defs><style>.cls-1{fill:#231f20;}</style></defs><path class="cls-1" d="M192.94,328a231.87,231.87,0,0,1,14.84-51.69l-5.2,12.3a233.41,233.41,0,0,1,29.62-50.79l-8,10.42c8.54-11,17.9-21.34,28.89-29.91l-10.42,8.06a92.76,92.76,0,0,1,18.37-11l-12.3,5.19c13.09-5.45,27.32-7.71,41.3-9.6l-13.69,1.84c10.41-1.33,20.85-1.94,31.29-.59L293.9,210.4a69.88,69.88,0,0,1,16.47,4.53l-12.31-5.19A66,66,0,0,1,310.28,217l-10.43-8.05a101.68,101.68,0,0,1,17.5,18l-8.05-10.42c11,14.47,20.84,30.07,30.52,45.48,10.26,16.33,19.74,33.15,27.27,50.93l-5.19-12.31a59.79,59.79,0,0,1,3.76,11.63l-1.84-13.69a30.21,30.21,0,0,1,.21,5l1.84-13.69a20.38,20.38,0,0,1-1.28,4.8l5.19-12.3a13.44,13.44,0,0,1-1.33,2.25l8.06-10.43a21.38,21.38,0,0,1-2.63,2.75L384.3,269a26.18,26.18,0,0,1-4.44,2.65l12.3-5.19a45.21,45.21,0,0,1-10.61,2.78l13.69-1.84c-18.31,2.43-36.95,3.41-55.38,4.6q-29.14,1.86-58.34,2.67-28.69.78-57.4.54-14.35-.12-28.7-.5c-9.32-.25-18.93,0-28.17-1.19l13.69,1.84a14.34,14.34,0,0,1-2.81-.73l12.3,5.19a9.21,9.21,0,0,1-2.5-1.41l10.43,8.05-1-.94,8.06,10.42a14.93,14.93,0,0,1-2-3.52l5.19,12.3a28.82,28.82,0,0,1-.95-4.11l1.84,13.7a51.11,51.11,0,0,1,.07-11L207.68,317a60.4,60.4,0,0,1,3.76-13.83l-5.19,12.3a80.66,80.66,0,0,1,9.9-16.83L208.1,309a110.93,110.93,0,0,1,18.6-18.47l-10.42,8.06a117.77,117.77,0,0,1,25.48-15l-12.3,5.19A103.81,103.81,0,0,1,254.64,282L241,283.82a90.38,90.38,0,0,1,22,0L249.25,282a87.77,87.77,0,0,1,21.56,5.93l-12.3-5.2a84.75,84.75,0,0,1,17.89,10.57L266,285.2a77.1,77.1,0,0,1,12.46,12.56l-8.05-10.42A75.16,75.16,0,0,1,276,296c6.22,11.16,18.56,20.3,30.78,23.67s28.74,1.86,39.69-5.19,20.67-17.65,23.66-30.78C373.29,270,371.91,256.48,365,244c-21.79-39.11-64.23-61.28-108-63.82-23.89-1.39-46.43,5.39-68,14.81a114.63,114.63,0,0,0-20.09,11.23c-9.33,6.55-18.7,13.65-26.67,21.88a142.71,142.71,0,0,0-21,27.33c-3.7,6.4-6.45,13.46-9.15,20.29a59,59,0,0,0-3.39,11.47c-3.1,17.52-4,34.23,3.11,51,5.12,12.13,12.85,22.83,24.71,29.5,10.65,6,20.84,8,32.91,9,18.4,1.58,37.19,1.3,55.65,1.45s36.95,0,55.43-.53c36.91-1,73.89-3,110.63-6.82,15.2-1.56,28.28-3.43,41.87-10.85,15.56-8.5,29-25,32.15-42.66,2.18-12.37,2.39-23.48-1-35.78-2.08-7.66-5.81-15-8.92-22.25-3.39-7.86-7.15-15.56-11.21-23.1-8.28-15.39-17.72-30.11-27.34-44.69-10.56-16-21.11-32.44-34.26-46.44a122.66,122.66,0,0,0-26-20.94c-6.35-3.8-13.45-6.51-20.3-9.17a64.65,64.65,0,0,0-12.34-3.46c-12-2.13-24-3.58-36.15-2.8a349.51,349.51,0,0,0-36.32,4.7c-19.9,3.37-40,9.52-56.71,21.11a192.64,192.64,0,0,0-42.29,39.55c-12.19,15.44-23.53,31.15-32.36,48.77a297.25,297.25,0,0,0-21.41,54.72,232.88,232.88,0,0,0-5,23,39.12,39.12,0,0,0-.92,20.54,38.33,38.33,0,0,0,6.11,19.14c6.25,10.69,18.5,20.87,30.78,23.67,13.18,3,28,2.35,39.68-5.19,10.59-6.82,21.54-17.81,23.67-30.78Z"/><path class="cls-1" d="M133.92,354.52c.39,1.67.76,3.35,1,5.05-.42-2.84,0,1.27.07,2.16.08,1.72.09,3.43,0,5.15,0,.85-.09,1.71-.15,2.57,0,.32-.44,3.65-.16,1.93s-.22.94-.24,1.06c-.19.84-.36,1.68-.55,2.51-.47,1.95-1,3.87-1.67,5.77-.26.76-1.93,4.5-.8,2.17-.87,1.81-1.8,3.58-2.81,5.3-7.42,12.61-17.13,23-22.89,36.67-11.8,28-9.12,62,7.43,87.52,4,6.16,8.4,11.94,11.92,18.39,1.56,2.86-.34-1.53.7,1.53.49,1.47,1,2.93,1.36,4.43s.63,3,1,4.51c-.06-.26-.24-2.9-.1-.83.07,1,.18,2.05.24,3.08a75.4,75.4,0,0,1-.31,10.08c.26-3.1-.09.32-.34,1.54-.37,1.8-.81,3.59-1.31,5.35-.44,1.52-.92,3-1.45,4.52-.26.74-.56,1.48-.82,2.22.1-.29,1.11-2.34.23-.53a100.72,100.72,0,0,1-4.84,9.05c-.83,1.33-1.72,2.62-2.62,3.91-1.83,2.62,1.08-1-1.12,1.35-1.07,1.13-2.14,2.25-3.28,3.32-.21.2-2.18,1.55-.63.55s-1.2.53-1.45.73c-1.47,1.11.26-.12.75-.24-.94.23-1.85.52-2.81.73.23-.05,3.06-.34,1-.31s.86.14,1.07.29c-2.64-1.85,1.41,2-1-.31.55.51,1.4,1.38,2,1.8.72,1,.83,1.14.35.33s-.4-.68.17.47a13.64,13.64,0,0,1,.68,3.29c0-2.15,0,0-.24,0,.21,0-.66,2.09.09,0a10,10,0,0,1-1.55,3,10.27,10.27,0,0,1-2.42,2.18c-.34.22-2.71.73-.88.43a27.63,27.63,0,0,0,4.71-1.38,44.07,44.07,0,0,0,18.46-12c23-25.94,18.77-68.71,9.27-99.27-2.72-8.73-12.33-15.2-21.53-12.22-8.78,2.84-15.14,12.16-12.22,21.52,1.19,3.83,2.26,7.69,3.14,11.6.47,2.1.9,4.21,1.27,6.34.17.91.31,1.82.46,2.73.18,1.24.19,1.22,0-.08l.21,1.84a135.3,135.3,0,0,1,.48,24.81c-.15,1.79-.63,3.75,0,.73-.32,1.57-.54,3.15-.9,4.72-.3,1.33-.64,2.66-1,4-.25.87-.53,1.73-.83,2.59-.14.41-1.22,3.22-.33,1,.82-2-1,1.91-1.43,2.68-.64,1.12-1.42,2.16-2.08,3.27,2-3.43-.06-.2-1,.79-.43.46-.95.81-1.39,1.26,2.54-2.61,1.12-.85,0-.2-.55.31-1.11.59-1.66.91.59-.34,3.55-1.11.57-.34-1.39.36-2.8.72-4.16,1.16a29.36,29.36,0,0,0-12.89,7.92,29,29,0,0,0-5.72,28.18c7.33,21,33.33,26.4,51.08,14.87,14.41-9.37,23.85-25.84,29.15-41.83,5-15.25,5.9-32.94.91-48.33-2.76-8.49-7.12-16-12.18-23.22-2.16-3.09-4.35-6.17-6.27-9.42-.94-1.59-1.82-3.2-2.64-4.85-.35-.7-.65-1.43-1-2.13-1.24-2.48,1.26,3.68-.32-.91a88.78,88.78,0,0,1-2.88-9.81c-.4-1.8-.73-3.6-1-5.42.54,3.34-.05-1.27-.12-2.4a82.86,82.86,0,0,1,.08-11c.06-.78.17-1.57.21-2.35,0,.27-.47,2.79-.11.74s.73-4.13,1.22-6.18,1.06-4.06,1.71-6.05c.31-.95,2-5.35.75-2.44a70.67,70.67,0,0,1,6.16-11.3c4.86-7.43,10.72-14.17,15.23-21.83,10.78-18.31,13.53-40.06,8.8-60.64-2-8.93-12.8-15.05-21.52-12.23a17.89,17.89,0,0,0-12.23,21.53Z"/><path class="cls-1" d="M389.09,351.75c.61,16.08,1,32.17,1.84,48.24.44,8.46,1.79,16.7,6.68,23.83,5.13,7.47,12.38,12.62,19.67,17.81,2.76,2,5.56,3.9,8.32,5.86,1.39,1,2.77,2,4.13,3,.11.08,4.5,3.47,1.85,1.36,2.2,1.75,4.35,3.55,6.41,5.46,1.24,1.15,2.45,2.33,3.61,3.55.43.44,4.52,5.38,2.58,2.76a62.44,62.44,0,0,1,5.11,8.45c2.19,4.19-.42-2.71.69,1.86.38,1.56.85,3.11,1.23,4.68,1,4.34.48-2.73.08,1.69,0,.51-.55,5.65.14,1.73-.26,1.5-.76,2.9-1.11,4.37q-1,2.81.19-.19c-.4.87-.83,1.72-1.29,2.56a78.51,78.51,0,0,1-4.7,7.28c-2.76,4,2.23-2.67-.85,1.11-.93,1.15-1.85,2.31-2.78,3.47-4.58,5.71-9.43,11.47-12.85,18-7.38,14-9.59,30.65-9.18,46.37.47,17.47,6.43,34.52,21.52,44.54s36.9,8.13,46.92-7.9c6.4-10.23,4.36-23.34-4.07-31.72a51.92,51.92,0,0,0-9.9-7.2c-3.21-1.91,1.71,2.42-.89-.78a26.44,26.44,0,0,1-1.95-2.15q1.9,2.44.24,0c-.25-.54-2.3-4.9-.81-1.09-.73-1.86-1.11-3.78-1.71-5.67-1.36-4.34-.07,3.31-.25-1.23-.09-2.26-.18-4.48-.06-6.75,0,.09.76-6,.25-2.87.42-2.5,1-5,1.61-7.44,1.09-4.33,2.42-8.59,3.74-12.84,2.72-8.74-3.21-19.48-12.22-21.53-10.12-2.3-17.87,3.1-21.53,12.22-5.11,12.76-10,26.45-8.25,40.41,1.8,14.71,8.57,28.28,21.8,35.86,7.95,4.56,19.51,2.13,23.95-6.27s2.2-19.08-6.28-23.95c-.82-.47-1.62-1-2.4-1.48,1.38.94,1.37,1.4.39,0-1.87-2.69.6,1.64-.26-.31a18.63,18.63,0,0,0-1.4-2.45c-1.23-1.85.59,2.43.1.24-.21-.92-.59-1.83-.82-2.75-.1-.4-.81-3.5-.36-1.21s-.08-1.75-.08-2c0-1.08,0-2.17.06-3.26,0-.9.3-2.71,0-.79a58.17,58.17,0,0,1,1.65-7.14,160.77,160.77,0,0,1,5.65-15.62l-33.75-9.31c-4.76,15.3-8.5,30.76-5.83,46.82a49.89,49.89,0,0,0,21.74,33.55c1.09.73,2.21,1.43,3.32,2.12,2.84,1.76-1.19-1.18-1.66-2.06a12.71,12.71,0,0,1-.83-7.27l2.48-4.2c-1.4,1.36-1.33,1.35.19,0l1.54-.61q-3,.69.44,0c-4.37-.83,2.31,1.22-.21,0-1-.49-3.39-1.9-.43,0a23.75,23.75,0,0,1-2.46-1.5q2.41,1.92.18,0c0-.05-2.81-3.67-1.47-1.55s-1-1.93-1-1.91c1.58,2.88-.56-1.64-.69-2.08a41.15,41.15,0,0,1-1.1-4.92c.13.81.2,3.08,0-.4-.09-1.71-.18-3.41-.19-5.12,0-3.47.15-6.94.42-10.39,0-.1.62-5.94.16-2.47.23-1.76.57-3.53.95-5.26a45.51,45.51,0,0,1,2.56-8.5c-1.21,2.73,1-1.53,1-1.66.6-1.06,1.24-2.1,1.91-3.12s1.36-2,2.08-3c.57-.79,1.16-1.58,1.76-2.37-1.23,1.6-1.23,1.61,0,0,8-9.76,16.31-19.79,19.78-32.2,4.18-14.95.6-31.2-7.34-44.26-7.5-12.32-18.27-21.38-29.75-29.8-5.86-4.3-12.26-8.1-17.84-12.75,2.34,1.95.19.09-.17-.28-.79-.7-1.55-1.43-2.28-2.2-1.34-1.52-1.39-1.56-.16-.14l-.79-1.35q1,2.67.1-.25c-1-4.85-.07,3.32-.25-1.68-.59-16.61-1.29-33.22-1.92-49.84-.34-9.13-7.8-17.93-17.5-17.5-9.18.41-17.87,7.7-17.5,17.5Z"/><path class="cls-1" d="M214.72,356.73a91.11,91.11,0,0,0-12.47,46.48,89,89,0,0,0,3.53,24.1c2.1,7.09,5.32,13.81,7.25,21a43.84,43.84,0,0,1,1.1,4.93c-.42-2.82-.09.86-.1,1.87,0,1.6-.57,4.18.1,1.13-.42,1.89-.79,3.77-1.35,5.62-.43,1.39-1,2.74-1.45,4.11,1-2.87,0,0-.6,1.23-1.52,3.16-3.2,6.25-4.88,9.32-7.38,13.45-13.71,26.64-14.87,42.17-1.11,15,3.14,30.05,7.3,44.29,2,6.89,4.06,13.78,5.51,20.82.34,1.61.57,3.24.9,4.84.55,2.76-.13-2.59,0,.2,0,.82.16,1.63.22,2.44.24,3.29.12,6.57.23,9.87.33,9.78,3.09,19.42,11.11,25.62s18.2,7.1,27.53,3.15C262.55,622,267.65,601.5,264.48,583c-1.59-9.27-5.78-18-9.68-26.49-.88-1.9-1.76-3.78-2.63-5.68-.33-.73-2.3-5.33-1.39-3.07a120.42,120.42,0,0,1-4.26-12.51q-1.68-5.94-2.77-12c-.21-1.16-.39-2.32-.58-3.48-.48-2.89.13,2.33-.06-.59-.13-2.05-.4-4.1-.52-6.15-.24-4.11-.29-8.23-.14-12.33q.13-3.52.47-7c.08-.88.19-1.75.28-2.63.31-3.19-.65,4.06.24-1.45,1.44-9-2.32-19.27-12.23-21.53-8.4-1.92-20,2.55-21.52,12.22-5,31-.45,60.58,12.63,89.05,1.49,3.26,3.06,6.49,4.48,9.78-1.07-2.46.39,1,.61,1.6.52,1.37,1,2.75,1.46,4.14.53,1.65.87,3.34,1.37,5,1.38,4.51.3-2.64.35,2a37.78,37.78,0,0,1-.06,5c.53-4.41-2,4-.42,1.06s-2.75,2.86.83-1.12l-.92,1c-1.44,1.31-1.29,1.24.47-.21-4.2.9,3.72-.57-.42.25a9.23,9.23,0,0,1,6.66.8c1.55.87,2,2.31,3.19,3.29l.41.84q-.63-2.93-.06.53c-.23-3.46-.06-6.93-.24-10.4-.69-13.72-4.41-26.92-8.24-40-1.68-5.78-3.35-11.58-4.6-17.48-.34-1.58-.61-3.16-.9-4.75-.95-5,0,3.42-.2-1.68a83.78,83.78,0,0,1-.11-10.27c.07-1,.78-4.28.07-.88.32-1.55.63-3.08,1.06-4.6s.93-2.82,1.39-4.25c1.46-4.58-1.59,3,.54-1.35,2.68-5.44,5.6-10.74,8.48-16.08,6.28-11.66,11.91-24.37,11.5-37.9-.49-16.07-9.44-29.57-11.63-45.21.55,3.89,0-1.49,0-1.89-.13-2.18-.15-4.38-.07-6.57.06-1.65.19-3.28.34-4.92-.33,3.64.19-1.07.34-1.86a94.09,94.09,0,0,1,3.09-11.07c1.57-4.84-1.55,2.63.78-1.88,1-1.95,2-3.89,3.11-5.8,4.61-7.91,2.08-19.52-6.28-23.94s-19-2.17-23.95,6.28Z"/><path class="cls-1" d="M296.45,348c-11.88,29.23,9.52,57,27.13,78.11,1,1.25,2.07,2.49,3.08,3.75.12.14,3.38,4.34,1.34,1.64,1.61,2.13,3.17,4.3,4.63,6.54,1.72,2.64,3.17,5.39,4.69,8.15,2.28,4.14-.7-2.88.7,1.59.53,1.71,1.1,3.37,1.51,5.11.21.9.63,4.21.29.75a40.34,40.34,0,0,1,.18,4.66c0,.82-.65,5.31.11,1-.24,1.35-.51,2.68-.86,4-.29,1.09-.63,2.17-1,3.24s-1.7,3.62-.07.33a81.64,81.64,0,0,1-4.72,8.42c-1.29,2-2.68,3.89-4.09,5.78,2.33-3.13-.59.7-.91,1.09q-1.38,1.71-2.78,3.37C321.9,490,318,494.43,314.36,499c-9.06,11.37-16.53,23.17-20.49,37.35-3.81,13.63-5.29,30.57-1,44.32,2.32,7.41,6.44,14.46,13.1,18.75a25.11,25.11,0,0,0,25.65.93c14.55-8.31,14.61-25.41,13.62-40a189,189,0,0,1-.07-24.39q.18-2.82.43-5.62c.12-1.24.24-2.49.38-3.73q.4-3.2.1-1.07c.57-4.34,1.4-8.65,2.3-12.94,1.81-8.68-2.54-18.78-11.88-20.91-8.51-1.94-19,2.56-20.91,11.87a218.28,218.28,0,0,0-4.77,41.78c-.08,6.58.22,13.14.79,19.69a53.37,53.37,0,0,1,.29,6.32c0,.83.18,2.36-.19,3.08q.54-3.74,0-1l-.31,1.11c-.58,2.84,1.21-2,1.92-2.79-1.89,2,.87-.66,1.15-.83a9.16,9.16,0,0,1,9.63-.27c.39.23,3.27,3.84,2.31,2.24-.56-1-1.51-3.49-.31-.06-.37-1-.63-2.12-1-3.18-.19-.66-.56-3.47-.22-.78-.22-1.7-.32-3.43-.38-5.14-.11-2.87.07-5.71.17-8.58.17-5.26-.73,2.88.24-2.29.26-1.41.53-2.82.85-4.21a73.93,73.93,0,0,1,2.4-8.24c.22-.61,1.6-4,.52-1.52.69-1.57,1.47-3.1,2.28-4.61a80.06,80.06,0,0,1,4.42-7.19c.67-1,1.39-2,2.08-3,2.66-3.8-1.36,1.6.44-.6,3.24-4,6.55-7.92,9.87-11.84,7-8.26,14.31-16.78,19.12-26.55,6-12.27,8.28-24.91,6-38.45-2-11.66-8.06-22.49-15.06-31.86-4.25-5.7-8.75-11.18-13.32-16.61-1-1.21-2-2.42-3.06-3.65-.37-.44-3.23-4.05-1.43-1.7a99.66,99.66,0,0,1-5.69-8.29,76.79,76.79,0,0,1-4.74-8.8c1.12,2.48,0,0-.14-.47-.66-2-1.17-4.1-1.81-6.12-.19-.59-.62-3.37-.18-.1a40.77,40.77,0,0,1-.17-6.15c0-1.16.88-2.56,0-.06.69-2,1.12-4,1.92-6,3.36-8.26-3.64-19-11.87-20.91-9.86-2.25-17.32,3-20.91,11.87Z"/></svg>